<mxfile host="app.diagrams.net" modified="2022-07-24T05:31:49.725Z" agent="5.0 (Macintosh; Intel Mac OS X 10_15_7) AppleWebKit/537.36 (KHTML, like Gecko) Chrome/103.0.0.0 Safari/537.36" etag="0LDi18dJGMBu_0LGHWdG" version="20.2.0" type="github">
  <diagram id="OLXH5Rios0bmcm2Qf8b4" name="ページ1">
    <mxGraphModel dx="574" dy="364" grid="1" gridSize="10" guides="1" tooltips="1" connect="1" arrows="1" fold="1" page="1" pageScale="1" pageWidth="827" pageHeight="1169" math="1" shadow="0">
      <root>
        <mxCell id="0" />
        <mxCell id="1" parent="0" />
        <mxCell id="bx8ym8qFhhhml1JpM3Kk-1" value="" style="shape=parallelogram;perimeter=parallelogramPerimeter;whiteSpace=wrap;html=1;fixedSize=1;size=80;" vertex="1" parent="1">
          <mxGeometry x="81" y="40" width="200" height="80" as="geometry" />
        </mxCell>
        <mxCell id="bx8ym8qFhhhml1JpM3Kk-2" value="" style="whiteSpace=wrap;html=1;aspect=fixed;" vertex="1" parent="1">
          <mxGeometry x="81" y="120" width="120" height="120" as="geometry" />
        </mxCell>
        <mxCell id="bx8ym8qFhhhml1JpM3Kk-4" value="" style="endArrow=none;html=1;rounded=0;entryX=1;entryY=0;entryDx=0;entryDy=0;" edge="1" parent="1" target="bx8ym8qFhhhml1JpM3Kk-1">
          <mxGeometry width="50" height="50" relative="1" as="geometry">
            <mxPoint x="281" y="160" as="sourcePoint" />
            <mxPoint x="291" y="170" as="targetPoint" />
          </mxGeometry>
        </mxCell>
        <mxCell id="bx8ym8qFhhhml1JpM3Kk-6" value="" style="endArrow=none;html=1;rounded=0;exitX=1;exitY=1;exitDx=0;exitDy=0;" edge="1" parent="1" source="bx8ym8qFhhhml1JpM3Kk-2">
          <mxGeometry width="50" height="50" relative="1" as="geometry">
            <mxPoint x="241" y="220" as="sourcePoint" />
            <mxPoint x="281" y="160" as="targetPoint" />
          </mxGeometry>
        </mxCell>
        <mxCell id="bx8ym8qFhhhml1JpM3Kk-7" value="" style="endArrow=none;html=1;rounded=0;entryX=1;entryY=0;entryDx=0;entryDy=0;" edge="1" parent="1">
          <mxGeometry width="50" height="50" relative="1" as="geometry">
            <mxPoint x="121" y="240" as="sourcePoint" />
            <mxPoint x="121" y="120" as="targetPoint" />
          </mxGeometry>
        </mxCell>
        <mxCell id="bx8ym8qFhhhml1JpM3Kk-8" value="" style="endArrow=none;html=1;rounded=0;entryX=1;entryY=0;entryDx=0;entryDy=0;" edge="1" parent="1">
          <mxGeometry width="50" height="50" relative="1" as="geometry">
            <mxPoint x="161" y="240" as="sourcePoint" />
            <mxPoint x="161" y="120" as="targetPoint" />
          </mxGeometry>
        </mxCell>
        <mxCell id="bx8ym8qFhhhml1JpM3Kk-9" value="" style="endArrow=none;html=1;rounded=0;exitX=1;exitY=1;exitDx=0;exitDy=0;" edge="1" parent="1">
          <mxGeometry width="50" height="50" relative="1" as="geometry">
            <mxPoint x="201" y="160" as="sourcePoint" />
            <mxPoint x="281" y="80" as="targetPoint" />
          </mxGeometry>
        </mxCell>
        <mxCell id="bx8ym8qFhhhml1JpM3Kk-10" value="" style="endArrow=none;html=1;rounded=0;exitX=1;exitY=1;exitDx=0;exitDy=0;" edge="1" parent="1">
          <mxGeometry width="50" height="50" relative="1" as="geometry">
            <mxPoint x="201" y="200" as="sourcePoint" />
            <mxPoint x="281" y="120" as="targetPoint" />
          </mxGeometry>
        </mxCell>
        <mxCell id="bx8ym8qFhhhml1JpM3Kk-11" value="" style="endArrow=none;html=1;rounded=0;entryX=1;entryY=0;entryDx=0;entryDy=0;" edge="1" parent="1">
          <mxGeometry width="50" height="50" relative="1" as="geometry">
            <mxPoint x="256" y="188" as="sourcePoint" />
            <mxPoint x="256" y="68" as="targetPoint" />
          </mxGeometry>
        </mxCell>
        <mxCell id="bx8ym8qFhhhml1JpM3Kk-12" value="" style="endArrow=none;html=1;rounded=0;entryX=1;entryY=0;entryDx=0;entryDy=0;" edge="1" parent="1">
          <mxGeometry width="50" height="50" relative="1" as="geometry">
            <mxPoint x="228" y="213" as="sourcePoint" />
            <mxPoint x="228" y="93" as="targetPoint" />
          </mxGeometry>
        </mxCell>
        <mxCell id="bx8ym8qFhhhml1JpM3Kk-13" value="" style="endArrow=none;html=1;rounded=0;" edge="1" parent="1">
          <mxGeometry width="50" height="50" relative="1" as="geometry">
            <mxPoint x="109" y="92" as="sourcePoint" />
            <mxPoint x="229" y="92" as="targetPoint" />
          </mxGeometry>
        </mxCell>
        <mxCell id="bx8ym8qFhhhml1JpM3Kk-14" value="" style="endArrow=none;html=1;rounded=0;" edge="1" parent="1">
          <mxGeometry width="50" height="50" relative="1" as="geometry">
            <mxPoint x="133" y="68" as="sourcePoint" />
            <mxPoint x="253" y="68" as="targetPoint" />
          </mxGeometry>
        </mxCell>
        <mxCell id="bx8ym8qFhhhml1JpM3Kk-15" value="" style="endArrow=none;html=1;rounded=0;exitX=1;exitY=1;exitDx=0;exitDy=0;" edge="1" parent="1">
          <mxGeometry width="50" height="50" relative="1" as="geometry">
            <mxPoint x="121" y="120" as="sourcePoint" />
            <mxPoint x="201" y="40" as="targetPoint" />
          </mxGeometry>
        </mxCell>
        <mxCell id="bx8ym8qFhhhml1JpM3Kk-16" value="" style="endArrow=none;html=1;rounded=0;exitX=1;exitY=1;exitDx=0;exitDy=0;" edge="1" parent="1">
          <mxGeometry width="50" height="50" relative="1" as="geometry">
            <mxPoint x="161" y="120" as="sourcePoint" />
            <mxPoint x="241" y="40" as="targetPoint" />
          </mxGeometry>
        </mxCell>
        <mxCell id="bx8ym8qFhhhml1JpM3Kk-19" value="" style="endArrow=none;html=1;rounded=0;exitX=0.008;exitY=0.683;exitDx=0;exitDy=0;exitPerimeter=0;entryX=1;entryY=0.683;entryDx=0;entryDy=0;entryPerimeter=0;" edge="1" parent="1" source="bx8ym8qFhhhml1JpM3Kk-2" target="bx8ym8qFhhhml1JpM3Kk-2">
          <mxGeometry width="50" height="50" relative="1" as="geometry">
            <mxPoint x="241" y="220" as="sourcePoint" />
            <mxPoint x="291" y="170" as="targetPoint" />
          </mxGeometry>
        </mxCell>
        <mxCell id="bx8ym8qFhhhml1JpM3Kk-20" value="" style="endArrow=none;html=1;rounded=0;exitX=0.008;exitY=0.683;exitDx=0;exitDy=0;exitPerimeter=0;entryX=1;entryY=0.683;entryDx=0;entryDy=0;entryPerimeter=0;" edge="1" parent="1">
          <mxGeometry width="50" height="50" relative="1" as="geometry">
            <mxPoint x="81.00000000000003" y="160.00000000000003" as="sourcePoint" />
            <mxPoint x="200.03999999999996" y="160.00000000000003" as="targetPoint" />
          </mxGeometry>
        </mxCell>
        <mxCell id="bx8ym8qFhhhml1JpM3Kk-21" value="" style="endArrow=classic;html=1;rounded=0;strokeColor=#00AAAA;entryX=0.35;entryY=0.875;entryDx=0;entryDy=0;entryPerimeter=0;" edge="1" parent="1" target="bx8ym8qFhhhml1JpM3Kk-1">
          <mxGeometry width="50" height="50" relative="1" as="geometry">
            <mxPoint x="51" y="110" as="sourcePoint" />
            <mxPoint x="221" y="170" as="targetPoint" />
          </mxGeometry>
        </mxCell>
        <mxCell id="bx8ym8qFhhhml1JpM3Kk-23" value="" style="endArrow=classic;html=1;rounded=0;strokeColor=#00AAAA;" edge="1" parent="1">
          <mxGeometry width="50" height="50" relative="1" as="geometry">
            <mxPoint x="51" y="110" as="sourcePoint" />
            <mxPoint x="51" y="200" as="targetPoint" />
          </mxGeometry>
        </mxCell>
        <mxCell id="bx8ym8qFhhhml1JpM3Kk-24" value="" style="endArrow=classic;html=1;rounded=0;strokeColor=#00AAAA;" edge="1" parent="1">
          <mxGeometry width="50" height="50" relative="1" as="geometry">
            <mxPoint x="51" y="110" as="sourcePoint" />
            <mxPoint x="111" y="50" as="targetPoint" />
          </mxGeometry>
        </mxCell>
        <mxCell id="bx8ym8qFhhhml1JpM3Kk-25" value="`i`" style="text;html=1;strokeColor=none;fillColor=none;align=center;verticalAlign=middle;whiteSpace=wrap;rounded=0;" vertex="1" parent="1">
          <mxGeometry x="17" y="110" width="50" height="30" as="geometry" />
        </mxCell>
        <mxCell id="bx8ym8qFhhhml1JpM3Kk-26" value="`j`" style="text;html=1;strokeColor=none;fillColor=none;align=center;verticalAlign=middle;whiteSpace=wrap;rounded=0;" vertex="1" parent="1">
          <mxGeometry x="57" y="86" width="50" height="30" as="geometry" />
        </mxCell>
        <mxCell id="bx8ym8qFhhhml1JpM3Kk-28" value="`k`" style="text;html=1;strokeColor=none;fillColor=none;align=center;verticalAlign=middle;whiteSpace=wrap;rounded=0;" vertex="1" parent="1">
          <mxGeometry x="38" y="69" width="50" height="30" as="geometry" />
        </mxCell>
        <mxCell id="bx8ym8qFhhhml1JpM3Kk-38" value="" style="shape=parallelogram;perimeter=parallelogramPerimeter;whiteSpace=wrap;html=1;fixedSize=1;size=80;" vertex="1" parent="1">
          <mxGeometry x="120" y="320" width="200" height="80" as="geometry" />
        </mxCell>
        <mxCell id="bx8ym8qFhhhml1JpM3Kk-39" value="" style="endArrow=none;html=1;rounded=0;" edge="1" parent="1">
          <mxGeometry width="50" height="50" relative="1" as="geometry">
            <mxPoint x="148" y="372" as="sourcePoint" />
            <mxPoint x="268" y="372" as="targetPoint" />
          </mxGeometry>
        </mxCell>
        <mxCell id="bx8ym8qFhhhml1JpM3Kk-40" value="" style="endArrow=none;html=1;rounded=0;" edge="1" parent="1">
          <mxGeometry width="50" height="50" relative="1" as="geometry">
            <mxPoint x="172" y="348" as="sourcePoint" />
            <mxPoint x="292" y="348" as="targetPoint" />
          </mxGeometry>
        </mxCell>
        <mxCell id="bx8ym8qFhhhml1JpM3Kk-41" value="" style="endArrow=none;html=1;rounded=0;exitX=1;exitY=1;exitDx=0;exitDy=0;" edge="1" parent="1">
          <mxGeometry width="50" height="50" relative="1" as="geometry">
            <mxPoint x="160" y="400" as="sourcePoint" />
            <mxPoint x="240" y="320" as="targetPoint" />
          </mxGeometry>
        </mxCell>
        <mxCell id="bx8ym8qFhhhml1JpM3Kk-42" value="" style="endArrow=none;html=1;rounded=0;exitX=1;exitY=1;exitDx=0;exitDy=0;" edge="1" parent="1">
          <mxGeometry width="50" height="50" relative="1" as="geometry">
            <mxPoint x="200" y="400" as="sourcePoint" />
            <mxPoint x="280" y="320" as="targetPoint" />
          </mxGeometry>
        </mxCell>
        <mxCell id="bx8ym8qFhhhml1JpM3Kk-43" value="" style="shape=parallelogram;perimeter=parallelogramPerimeter;whiteSpace=wrap;html=1;fixedSize=1;size=80;" vertex="1" parent="1">
          <mxGeometry x="120" y="420" width="200" height="80" as="geometry" />
        </mxCell>
        <mxCell id="bx8ym8qFhhhml1JpM3Kk-44" value="" style="endArrow=none;html=1;rounded=0;" edge="1" parent="1">
          <mxGeometry width="50" height="50" relative="1" as="geometry">
            <mxPoint x="148" y="472" as="sourcePoint" />
            <mxPoint x="268" y="472" as="targetPoint" />
          </mxGeometry>
        </mxCell>
        <mxCell id="bx8ym8qFhhhml1JpM3Kk-45" value="" style="endArrow=none;html=1;rounded=0;" edge="1" parent="1">
          <mxGeometry width="50" height="50" relative="1" as="geometry">
            <mxPoint x="172" y="448" as="sourcePoint" />
            <mxPoint x="292" y="448" as="targetPoint" />
          </mxGeometry>
        </mxCell>
        <mxCell id="bx8ym8qFhhhml1JpM3Kk-46" value="" style="endArrow=none;html=1;rounded=0;exitX=1;exitY=1;exitDx=0;exitDy=0;" edge="1" parent="1">
          <mxGeometry width="50" height="50" relative="1" as="geometry">
            <mxPoint x="160" y="500" as="sourcePoint" />
            <mxPoint x="240" y="420" as="targetPoint" />
          </mxGeometry>
        </mxCell>
        <mxCell id="bx8ym8qFhhhml1JpM3Kk-47" value="" style="endArrow=none;html=1;rounded=0;exitX=1;exitY=1;exitDx=0;exitDy=0;" edge="1" parent="1">
          <mxGeometry width="50" height="50" relative="1" as="geometry">
            <mxPoint x="200" y="500" as="sourcePoint" />
            <mxPoint x="280" y="420" as="targetPoint" />
          </mxGeometry>
        </mxCell>
        <mxCell id="bx8ym8qFhhhml1JpM3Kk-48" value="" style="shape=parallelogram;perimeter=parallelogramPerimeter;whiteSpace=wrap;html=1;fixedSize=1;size=80;" vertex="1" parent="1">
          <mxGeometry x="120" y="520" width="200" height="80" as="geometry" />
        </mxCell>
        <mxCell id="bx8ym8qFhhhml1JpM3Kk-49" value="" style="endArrow=none;html=1;rounded=0;" edge="1" parent="1">
          <mxGeometry width="50" height="50" relative="1" as="geometry">
            <mxPoint x="148" y="572" as="sourcePoint" />
            <mxPoint x="268" y="572" as="targetPoint" />
          </mxGeometry>
        </mxCell>
        <mxCell id="bx8ym8qFhhhml1JpM3Kk-50" value="" style="endArrow=none;html=1;rounded=0;" edge="1" parent="1">
          <mxGeometry width="50" height="50" relative="1" as="geometry">
            <mxPoint x="172" y="548" as="sourcePoint" />
            <mxPoint x="292" y="548" as="targetPoint" />
          </mxGeometry>
        </mxCell>
        <mxCell id="bx8ym8qFhhhml1JpM3Kk-51" value="" style="endArrow=none;html=1;rounded=0;exitX=1;exitY=1;exitDx=0;exitDy=0;" edge="1" parent="1">
          <mxGeometry width="50" height="50" relative="1" as="geometry">
            <mxPoint x="160" y="600" as="sourcePoint" />
            <mxPoint x="240" y="520" as="targetPoint" />
          </mxGeometry>
        </mxCell>
        <mxCell id="bx8ym8qFhhhml1JpM3Kk-52" value="" style="endArrow=none;html=1;rounded=0;exitX=1;exitY=1;exitDx=0;exitDy=0;" edge="1" parent="1">
          <mxGeometry width="50" height="50" relative="1" as="geometry">
            <mxPoint x="200" y="600" as="sourcePoint" />
            <mxPoint x="280" y="520" as="targetPoint" />
          </mxGeometry>
        </mxCell>
        <mxCell id="bx8ym8qFhhhml1JpM3Kk-53" value="" style="endArrow=classic;html=1;rounded=0;strokeColor=#00AAAA;entryX=0.35;entryY=0.875;entryDx=0;entryDy=0;entryPerimeter=0;" edge="1" parent="1">
          <mxGeometry width="50" height="50" relative="1" as="geometry">
            <mxPoint x="90" y="587" as="sourcePoint" />
            <mxPoint x="190" y="587" as="targetPoint" />
          </mxGeometry>
        </mxCell>
        <mxCell id="bx8ym8qFhhhml1JpM3Kk-54" value="`j`" style="text;html=1;strokeColor=none;fillColor=none;align=center;verticalAlign=middle;whiteSpace=wrap;rounded=0;" vertex="1" parent="1">
          <mxGeometry x="96" y="563" width="50" height="30" as="geometry" />
        </mxCell>
        <mxCell id="bx8ym8qFhhhml1JpM3Kk-55" value="`k`" style="text;html=1;strokeColor=none;fillColor=none;align=center;verticalAlign=middle;whiteSpace=wrap;rounded=0;" vertex="1" parent="1">
          <mxGeometry x="85" y="542" width="50" height="30" as="geometry" />
        </mxCell>
        <mxCell id="bx8ym8qFhhhml1JpM3Kk-57" value="" style="endArrow=classic;html=1;rounded=0;strokeColor=#00AAAA;" edge="1" parent="1">
          <mxGeometry width="50" height="50" relative="1" as="geometry">
            <mxPoint x="91" y="587" as="sourcePoint" />
            <mxPoint x="151" y="527" as="targetPoint" />
          </mxGeometry>
        </mxCell>
        <mxCell id="bx8ym8qFhhhml1JpM3Kk-58" value="" style="endArrow=classic;html=1;rounded=0;strokeColor=#00AAAA;entryX=0.35;entryY=0.875;entryDx=0;entryDy=0;entryPerimeter=0;" edge="1" parent="1">
          <mxGeometry width="50" height="50" relative="1" as="geometry">
            <mxPoint x="90" y="387" as="sourcePoint" />
            <mxPoint x="190" y="387" as="targetPoint" />
          </mxGeometry>
        </mxCell>
        <mxCell id="bx8ym8qFhhhml1JpM3Kk-59" value="`j`" style="text;html=1;strokeColor=none;fillColor=none;align=center;verticalAlign=middle;whiteSpace=wrap;rounded=0;" vertex="1" parent="1">
          <mxGeometry x="96" y="363" width="50" height="30" as="geometry" />
        </mxCell>
        <mxCell id="bx8ym8qFhhhml1JpM3Kk-60" value="`k`" style="text;html=1;strokeColor=none;fillColor=none;align=center;verticalAlign=middle;whiteSpace=wrap;rounded=0;" vertex="1" parent="1">
          <mxGeometry x="85" y="342" width="50" height="30" as="geometry" />
        </mxCell>
        <mxCell id="bx8ym8qFhhhml1JpM3Kk-61" value="" style="endArrow=classic;html=1;rounded=0;strokeColor=#00AAAA;" edge="1" parent="1">
          <mxGeometry width="50" height="50" relative="1" as="geometry">
            <mxPoint x="91" y="387" as="sourcePoint" />
            <mxPoint x="151" y="327" as="targetPoint" />
          </mxGeometry>
        </mxCell>
        <mxCell id="bx8ym8qFhhhml1JpM3Kk-62" value="" style="endArrow=classic;html=1;rounded=0;strokeColor=#00AAAA;entryX=0.35;entryY=0.875;entryDx=0;entryDy=0;entryPerimeter=0;" edge="1" parent="1">
          <mxGeometry width="50" height="50" relative="1" as="geometry">
            <mxPoint x="90" y="487" as="sourcePoint" />
            <mxPoint x="190" y="487" as="targetPoint" />
          </mxGeometry>
        </mxCell>
        <mxCell id="bx8ym8qFhhhml1JpM3Kk-63" value="`j`" style="text;html=1;strokeColor=none;fillColor=none;align=center;verticalAlign=middle;whiteSpace=wrap;rounded=0;" vertex="1" parent="1">
          <mxGeometry x="95" y="463" width="50" height="30" as="geometry" />
        </mxCell>
        <mxCell id="bx8ym8qFhhhml1JpM3Kk-64" value="`k`" style="text;html=1;strokeColor=none;fillColor=none;align=center;verticalAlign=middle;whiteSpace=wrap;rounded=0;" vertex="1" parent="1">
          <mxGeometry x="85" y="442" width="50" height="30" as="geometry" />
        </mxCell>
        <mxCell id="bx8ym8qFhhhml1JpM3Kk-65" value="" style="endArrow=classic;html=1;rounded=0;strokeColor=#00AAAA;" edge="1" parent="1">
          <mxGeometry width="50" height="50" relative="1" as="geometry">
            <mxPoint x="91" y="487" as="sourcePoint" />
            <mxPoint x="151" y="427" as="targetPoint" />
          </mxGeometry>
        </mxCell>
        <mxCell id="bx8ym8qFhhhml1JpM3Kk-66" value="" style="endArrow=classic;html=1;rounded=0;strokeColor=#00AAAA;" edge="1" parent="1">
          <mxGeometry width="50" height="50" relative="1" as="geometry">
            <mxPoint x="40" y="360" as="sourcePoint" />
            <mxPoint x="40" y="600" as="targetPoint" />
          </mxGeometry>
        </mxCell>
        <mxCell id="bx8ym8qFhhhml1JpM3Kk-67" value="`i`" style="text;html=1;strokeColor=none;fillColor=none;align=center;verticalAlign=middle;whiteSpace=wrap;rounded=0;" vertex="1" parent="1">
          <mxGeometry x="7" y="360" width="50" height="30" as="geometry" />
        </mxCell>
        <mxCell id="bx8ym8qFhhhml1JpM3Kk-68" value="" style="shape=parallelogram;perimeter=parallelogramPerimeter;whiteSpace=wrap;html=1;fixedSize=1;size=40;" vertex="1" parent="1">
          <mxGeometry x="400" y="344" width="400" height="37" as="geometry" />
        </mxCell>
        <mxCell id="bx8ym8qFhhhml1JpM3Kk-70" value="" style="endArrow=none;html=1;rounded=0;strokeColor=#000000;exitX=0.095;exitY=1.081;exitDx=0;exitDy=0;exitPerimeter=0;" edge="1" parent="1" source="bx8ym8qFhhhml1JpM3Kk-68">
          <mxGeometry width="50" height="50" relative="1" as="geometry">
            <mxPoint x="420" y="374" as="sourcePoint" />
            <mxPoint x="480" y="344" as="targetPoint" />
          </mxGeometry>
        </mxCell>
        <mxCell id="bx8ym8qFhhhml1JpM3Kk-73" value="" style="endArrow=none;html=1;rounded=0;strokeColor=#000000;exitX=0.095;exitY=1.081;exitDx=0;exitDy=0;exitPerimeter=0;" edge="1" parent="1">
          <mxGeometry width="50" height="50" relative="1" as="geometry">
            <mxPoint x="480" y="382.49699999999996" as="sourcePoint" />
            <mxPoint x="522" y="342.5" as="targetPoint" />
          </mxGeometry>
        </mxCell>
        <mxCell id="bx8ym8qFhhhml1JpM3Kk-74" value="" style="endArrow=none;html=1;rounded=0;strokeColor=#000000;exitX=0.095;exitY=1.081;exitDx=0;exitDy=0;exitPerimeter=0;" edge="1" parent="1">
          <mxGeometry width="50" height="50" relative="1" as="geometry">
            <mxPoint x="520" y="381.99699999999996" as="sourcePoint" />
            <mxPoint x="562" y="342" as="targetPoint" />
          </mxGeometry>
        </mxCell>
        <mxCell id="bx8ym8qFhhhml1JpM3Kk-75" value="" style="endArrow=none;html=1;rounded=0;strokeColor=#000000;exitX=0.095;exitY=1.081;exitDx=0;exitDy=0;exitPerimeter=0;" edge="1" parent="1">
          <mxGeometry width="50" height="50" relative="1" as="geometry">
            <mxPoint x="560" y="382.49699999999996" as="sourcePoint" />
            <mxPoint x="602" y="342.5" as="targetPoint" />
          </mxGeometry>
        </mxCell>
        <mxCell id="bx8ym8qFhhhml1JpM3Kk-76" value="" style="endArrow=none;html=1;rounded=0;strokeColor=#000000;exitX=0.095;exitY=1.081;exitDx=0;exitDy=0;exitPerimeter=0;" edge="1" parent="1">
          <mxGeometry width="50" height="50" relative="1" as="geometry">
            <mxPoint x="600" y="382.49699999999996" as="sourcePoint" />
            <mxPoint x="642" y="342.5" as="targetPoint" />
          </mxGeometry>
        </mxCell>
        <mxCell id="bx8ym8qFhhhml1JpM3Kk-77" value="" style="endArrow=none;html=1;rounded=0;strokeColor=#000000;exitX=0.095;exitY=1.081;exitDx=0;exitDy=0;exitPerimeter=0;" edge="1" parent="1">
          <mxGeometry width="50" height="50" relative="1" as="geometry">
            <mxPoint x="640" y="382.49699999999996" as="sourcePoint" />
            <mxPoint x="682" y="342.5" as="targetPoint" />
          </mxGeometry>
        </mxCell>
        <mxCell id="bx8ym8qFhhhml1JpM3Kk-78" value="" style="endArrow=none;html=1;rounded=0;strokeColor=#000000;exitX=0.095;exitY=1.081;exitDx=0;exitDy=0;exitPerimeter=0;" edge="1" parent="1">
          <mxGeometry width="50" height="50" relative="1" as="geometry">
            <mxPoint x="680" y="382.49699999999996" as="sourcePoint" />
            <mxPoint x="722" y="342.5" as="targetPoint" />
          </mxGeometry>
        </mxCell>
        <mxCell id="bx8ym8qFhhhml1JpM3Kk-79" value="" style="endArrow=none;html=1;rounded=0;strokeColor=#000000;exitX=0.095;exitY=1.081;exitDx=0;exitDy=0;exitPerimeter=0;" edge="1" parent="1">
          <mxGeometry width="50" height="50" relative="1" as="geometry">
            <mxPoint x="720" y="381.99699999999996" as="sourcePoint" />
            <mxPoint x="762" y="342" as="targetPoint" />
          </mxGeometry>
        </mxCell>
        <mxCell id="bx8ym8qFhhhml1JpM3Kk-80" value="" style="shape=parallelogram;perimeter=parallelogramPerimeter;whiteSpace=wrap;html=1;fixedSize=1;size=40;" vertex="1" parent="1">
          <mxGeometry x="400" y="444" width="400" height="37" as="geometry" />
        </mxCell>
        <mxCell id="bx8ym8qFhhhml1JpM3Kk-81" value="" style="endArrow=none;html=1;rounded=0;strokeColor=#000000;exitX=0.095;exitY=1.081;exitDx=0;exitDy=0;exitPerimeter=0;" edge="1" parent="1" source="bx8ym8qFhhhml1JpM3Kk-80">
          <mxGeometry width="50" height="50" relative="1" as="geometry">
            <mxPoint x="420" y="474" as="sourcePoint" />
            <mxPoint x="480" y="444" as="targetPoint" />
          </mxGeometry>
        </mxCell>
        <mxCell id="bx8ym8qFhhhml1JpM3Kk-82" value="" style="endArrow=none;html=1;rounded=0;strokeColor=#000000;exitX=0.095;exitY=1.081;exitDx=0;exitDy=0;exitPerimeter=0;" edge="1" parent="1">
          <mxGeometry width="50" height="50" relative="1" as="geometry">
            <mxPoint x="480" y="482.49699999999996" as="sourcePoint" />
            <mxPoint x="522" y="442.5" as="targetPoint" />
          </mxGeometry>
        </mxCell>
        <mxCell id="bx8ym8qFhhhml1JpM3Kk-83" value="" style="endArrow=none;html=1;rounded=0;strokeColor=#000000;exitX=0.095;exitY=1.081;exitDx=0;exitDy=0;exitPerimeter=0;" edge="1" parent="1">
          <mxGeometry width="50" height="50" relative="1" as="geometry">
            <mxPoint x="520" y="481.99699999999996" as="sourcePoint" />
            <mxPoint x="562" y="442" as="targetPoint" />
          </mxGeometry>
        </mxCell>
        <mxCell id="bx8ym8qFhhhml1JpM3Kk-84" value="" style="endArrow=none;html=1;rounded=0;strokeColor=#000000;exitX=0.095;exitY=1.081;exitDx=0;exitDy=0;exitPerimeter=0;" edge="1" parent="1">
          <mxGeometry width="50" height="50" relative="1" as="geometry">
            <mxPoint x="560" y="482.49699999999996" as="sourcePoint" />
            <mxPoint x="602" y="442.5" as="targetPoint" />
          </mxGeometry>
        </mxCell>
        <mxCell id="bx8ym8qFhhhml1JpM3Kk-85" value="" style="endArrow=none;html=1;rounded=0;strokeColor=#000000;exitX=0.095;exitY=1.081;exitDx=0;exitDy=0;exitPerimeter=0;" edge="1" parent="1">
          <mxGeometry width="50" height="50" relative="1" as="geometry">
            <mxPoint x="600" y="482.49699999999996" as="sourcePoint" />
            <mxPoint x="642" y="442.5" as="targetPoint" />
          </mxGeometry>
        </mxCell>
        <mxCell id="bx8ym8qFhhhml1JpM3Kk-86" value="" style="endArrow=none;html=1;rounded=0;strokeColor=#000000;exitX=0.095;exitY=1.081;exitDx=0;exitDy=0;exitPerimeter=0;" edge="1" parent="1">
          <mxGeometry width="50" height="50" relative="1" as="geometry">
            <mxPoint x="640" y="482.49699999999996" as="sourcePoint" />
            <mxPoint x="682" y="442.5" as="targetPoint" />
          </mxGeometry>
        </mxCell>
        <mxCell id="bx8ym8qFhhhml1JpM3Kk-87" value="" style="endArrow=none;html=1;rounded=0;strokeColor=#000000;exitX=0.095;exitY=1.081;exitDx=0;exitDy=0;exitPerimeter=0;" edge="1" parent="1">
          <mxGeometry width="50" height="50" relative="1" as="geometry">
            <mxPoint x="680" y="482.49699999999996" as="sourcePoint" />
            <mxPoint x="722" y="442.5" as="targetPoint" />
          </mxGeometry>
        </mxCell>
        <mxCell id="bx8ym8qFhhhml1JpM3Kk-88" value="" style="endArrow=none;html=1;rounded=0;strokeColor=#000000;exitX=0.095;exitY=1.081;exitDx=0;exitDy=0;exitPerimeter=0;" edge="1" parent="1">
          <mxGeometry width="50" height="50" relative="1" as="geometry">
            <mxPoint x="720" y="481.99699999999996" as="sourcePoint" />
            <mxPoint x="762" y="442" as="targetPoint" />
          </mxGeometry>
        </mxCell>
        <mxCell id="bx8ym8qFhhhml1JpM3Kk-89" value="" style="shape=parallelogram;perimeter=parallelogramPerimeter;whiteSpace=wrap;html=1;fixedSize=1;size=40;" vertex="1" parent="1">
          <mxGeometry x="400" y="541" width="400" height="37" as="geometry" />
        </mxCell>
        <mxCell id="bx8ym8qFhhhml1JpM3Kk-90" value="" style="endArrow=none;html=1;rounded=0;strokeColor=#000000;exitX=0.095;exitY=1.081;exitDx=0;exitDy=0;exitPerimeter=0;" edge="1" parent="1" source="bx8ym8qFhhhml1JpM3Kk-89">
          <mxGeometry width="50" height="50" relative="1" as="geometry">
            <mxPoint x="420" y="571" as="sourcePoint" />
            <mxPoint x="480" y="541" as="targetPoint" />
          </mxGeometry>
        </mxCell>
        <mxCell id="bx8ym8qFhhhml1JpM3Kk-91" value="" style="endArrow=none;html=1;rounded=0;strokeColor=#000000;exitX=0.095;exitY=1.081;exitDx=0;exitDy=0;exitPerimeter=0;" edge="1" parent="1">
          <mxGeometry width="50" height="50" relative="1" as="geometry">
            <mxPoint x="480" y="579.497" as="sourcePoint" />
            <mxPoint x="522" y="539.5" as="targetPoint" />
          </mxGeometry>
        </mxCell>
        <mxCell id="bx8ym8qFhhhml1JpM3Kk-92" value="" style="endArrow=none;html=1;rounded=0;strokeColor=#000000;exitX=0.095;exitY=1.081;exitDx=0;exitDy=0;exitPerimeter=0;" edge="1" parent="1">
          <mxGeometry width="50" height="50" relative="1" as="geometry">
            <mxPoint x="520" y="578.997" as="sourcePoint" />
            <mxPoint x="562" y="539" as="targetPoint" />
          </mxGeometry>
        </mxCell>
        <mxCell id="bx8ym8qFhhhml1JpM3Kk-93" value="" style="endArrow=none;html=1;rounded=0;strokeColor=#000000;exitX=0.095;exitY=1.081;exitDx=0;exitDy=0;exitPerimeter=0;" edge="1" parent="1">
          <mxGeometry width="50" height="50" relative="1" as="geometry">
            <mxPoint x="560" y="579.497" as="sourcePoint" />
            <mxPoint x="602" y="539.5" as="targetPoint" />
          </mxGeometry>
        </mxCell>
        <mxCell id="bx8ym8qFhhhml1JpM3Kk-94" value="" style="endArrow=none;html=1;rounded=0;strokeColor=#000000;exitX=0.095;exitY=1.081;exitDx=0;exitDy=0;exitPerimeter=0;" edge="1" parent="1">
          <mxGeometry width="50" height="50" relative="1" as="geometry">
            <mxPoint x="600" y="579.497" as="sourcePoint" />
            <mxPoint x="642" y="539.5" as="targetPoint" />
          </mxGeometry>
        </mxCell>
        <mxCell id="bx8ym8qFhhhml1JpM3Kk-95" value="" style="endArrow=none;html=1;rounded=0;strokeColor=#000000;exitX=0.095;exitY=1.081;exitDx=0;exitDy=0;exitPerimeter=0;" edge="1" parent="1">
          <mxGeometry width="50" height="50" relative="1" as="geometry">
            <mxPoint x="640" y="579.497" as="sourcePoint" />
            <mxPoint x="682" y="539.5" as="targetPoint" />
          </mxGeometry>
        </mxCell>
        <mxCell id="bx8ym8qFhhhml1JpM3Kk-96" value="" style="endArrow=none;html=1;rounded=0;strokeColor=#000000;exitX=0.095;exitY=1.081;exitDx=0;exitDy=0;exitPerimeter=0;" edge="1" parent="1">
          <mxGeometry width="50" height="50" relative="1" as="geometry">
            <mxPoint x="680" y="579.497" as="sourcePoint" />
            <mxPoint x="722" y="539.5" as="targetPoint" />
          </mxGeometry>
        </mxCell>
        <mxCell id="bx8ym8qFhhhml1JpM3Kk-97" value="" style="endArrow=none;html=1;rounded=0;strokeColor=#000000;exitX=0.095;exitY=1.081;exitDx=0;exitDy=0;exitPerimeter=0;" edge="1" parent="1">
          <mxGeometry width="50" height="50" relative="1" as="geometry">
            <mxPoint x="720" y="578.997" as="sourcePoint" />
            <mxPoint x="762" y="539" as="targetPoint" />
          </mxGeometry>
        </mxCell>
        <mxCell id="bx8ym8qFhhhml1JpM3Kk-98" value="" style="endArrow=classic;html=1;rounded=0;strokeColor=#00AAAA;entryX=0.35;entryY=0.875;entryDx=0;entryDy=0;entryPerimeter=0;" edge="1" parent="1">
          <mxGeometry width="50" height="50" relative="1" as="geometry">
            <mxPoint x="364" y="372" as="sourcePoint" />
            <mxPoint x="464" y="372" as="targetPoint" />
          </mxGeometry>
        </mxCell>
        <mxCell id="bx8ym8qFhhhml1JpM3Kk-99" value="`(j, k)`" style="text;html=1;strokeColor=none;fillColor=none;align=center;verticalAlign=middle;whiteSpace=wrap;rounded=0;" vertex="1" parent="1">
          <mxGeometry x="362" y="348" width="50" height="30" as="geometry" />
        </mxCell>
        <mxCell id="bx8ym8qFhhhml1JpM3Kk-100" value="" style="endArrow=classic;html=1;rounded=0;strokeColor=#00AAAA;entryX=0.35;entryY=0.875;entryDx=0;entryDy=0;entryPerimeter=0;" edge="1" parent="1">
          <mxGeometry width="50" height="50" relative="1" as="geometry">
            <mxPoint x="365" y="471.5" as="sourcePoint" />
            <mxPoint x="465" y="471.5" as="targetPoint" />
          </mxGeometry>
        </mxCell>
        <mxCell id="bx8ym8qFhhhml1JpM3Kk-101" value="`(j, k)`" style="text;html=1;strokeColor=none;fillColor=none;align=center;verticalAlign=middle;whiteSpace=wrap;rounded=0;" vertex="1" parent="1">
          <mxGeometry x="363" y="447.5" width="50" height="30" as="geometry" />
        </mxCell>
        <mxCell id="bx8ym8qFhhhml1JpM3Kk-102" value="" style="endArrow=classic;html=1;rounded=0;strokeColor=#00AAAA;entryX=0.35;entryY=0.875;entryDx=0;entryDy=0;entryPerimeter=0;" edge="1" parent="1">
          <mxGeometry width="50" height="50" relative="1" as="geometry">
            <mxPoint x="365" y="568.5" as="sourcePoint" />
            <mxPoint x="465" y="568.5" as="targetPoint" />
          </mxGeometry>
        </mxCell>
        <mxCell id="bx8ym8qFhhhml1JpM3Kk-103" value="`(j, k)`" style="text;html=1;strokeColor=none;fillColor=none;align=center;verticalAlign=middle;whiteSpace=wrap;rounded=0;" vertex="1" parent="1">
          <mxGeometry x="363" y="544.5" width="50" height="30" as="geometry" />
        </mxCell>
      </root>
    </mxGraphModel>
  </diagram>
</mxfile>
